<svg id="Layer_1" data-name="Layer 1" xmlns="http://www.w3.org/2000/svg" viewBox="0 0 348.34 174.13"><polyline points="152.64 54.83 191.29 16.18 188.94 13.82 150.88 51.87 150.88 51.87 124.8 0 66.12 0 40.16 51.62 40.16 51.62 2.36 13.82 0 16.18 38.45 54.62"/><path d="M39,58,51.49,174.6h89.14L153.1,58Zm61.68,94.14a7.66,7.66,0,0,1-5.24,2,7.92,7.92,0,0,1-5.37-2,7,7,0,0,1-2.3-5.57A7.15,7.15,0,0,1,90,141.23a7.49,7.49,0,0,1,5.45-2.17,7.41,7.41,0,0,1,7.51,7.51A7.07,7.07,0,0,1,100.7,152.12Zm18.82-46.68a22.6,22.6,0,0,1-4.13,5.57q-2.39,2.34-8.59,7.89a35.44,35.44,0,0,0-2.75,2.74,11.82,11.82,0,0,0-1.54,2.17,11.52,11.52,0,0,0-.78,2c-.18.65-.46,1.8-.83,3.45-.64,3.5-2.64,5.24-6,5.24a6.13,6.13,0,0,1-4.41-1.71,6.74,6.74,0,0,1-1.79-5.09,17.84,17.84,0,0,1,4.79-12.78,78,78,0,0,1,5.85-5.57q3.22-2.82,4.66-4.26a14.49,14.49,0,0,0,2.42-3.2,7.8,7.8,0,0,0,1-3.83,8.88,8.88,0,0,0-3-6.8,10.94,10.94,0,0,0-7.73-2.78q-5.55,0-8.17,2.8a22.22,22.22,0,0,0-4.44,8.24q-1.71,5.7-6.5,5.7a6.41,6.41,0,0,1-4.76-2,6.08,6.08,0,0,1-1.94-4.31,18.22,18.22,0,0,1,3.07-9.71,23.68,23.68,0,0,1,9-8.14,28.2,28.2,0,0,1,13.76-3.22,29.48,29.48,0,0,1,12.9,2.69,20.93,20.93,0,0,1,8.64,7.34,17.92,17.92,0,0,1,3.05,10.08A15.57,15.57,0,0,1,119.52,105.44Z" transform="translate(-0.51 -0.47)"/><path d="M167.17,98.28V62.93a5.5,5.5,0,0,1,1.09-3.71A3.72,3.72,0,0,1,171.2,58a3.85,3.85,0,0,1,3,1.24,5.36,5.36,0,0,1,1.13,3.72V98.28a5.3,5.3,0,0,1-1.15,3.72,3.84,3.84,0,0,1-3,1.24,3.68,3.68,0,0,1-2.91-1.29A5.39,5.39,0,0,1,167.17,98.28Z" transform="translate(-0.51 -0.47)"/><path d="M206.5,88.67H190.55a10.75,10.75,0,0,0,1.12,4.89,7.68,7.68,0,0,0,2.9,3.2,7.59,7.59,0,0,0,4,1.07,9.78,9.78,0,0,0,2.68-.34,9.09,9.09,0,0,0,2.34-1.07,17.81,17.81,0,0,0,2.09-1.57c.64-.56,1.46-1.32,2.48-2.27a2.66,2.66,0,0,1,1.79-.54,2.94,2.94,0,0,1,2,.69,2.44,2.44,0,0,1,.78,1.94,5.25,5.25,0,0,1-.87,2.58,10.35,10.35,0,0,1-2.61,2.84,14.94,14.94,0,0,1-4.39,2.25,18.84,18.84,0,0,1-6.08.9q-7.84,0-12.21-4.48t-4.36-12.15a20.22,20.22,0,0,1,1.08-6.71,14.79,14.79,0,0,1,3.13-5.3,13.67,13.67,0,0,1,5.08-3.39A18.35,18.35,0,0,1,198.2,70a15.89,15.89,0,0,1,8.19,2,13.2,13.2,0,0,1,5.12,5.21,13.65,13.65,0,0,1,1.71,6.51q0,3.08-1.77,4A11,11,0,0,1,206.5,88.67ZM190.55,84h14.78c-.2-2.79-1-4.87-2.25-6.26a6.76,6.76,0,0,0-5.15-2.07,6.52,6.52,0,0,0-5,2.1A10.47,10.47,0,0,0,190.55,84Z" transform="translate(-0.51 -0.47)"/><path d="M220.53,70.81h.9v-4.9c0-1.31,0-2.34.1-3.09a4.66,4.66,0,0,1,.58-1.92,3.68,3.68,0,0,1,1.38-1.36,3.88,3.88,0,0,1,2-.53,4,4,0,0,1,2.81,1.17,3.51,3.51,0,0,1,1.06,1.9,17.13,17.13,0,0,1,.22,3.18v5.55h3a3.81,3.81,0,0,1,2.64.82,2.7,2.7,0,0,1,.91,2.11,2.36,2.36,0,0,1-1.3,2.3,8.56,8.56,0,0,1-3.72.65h-1.52v15a24.25,24.25,0,0,0,.13,2.94,3,3,0,0,0,.72,1.68,2.49,2.49,0,0,0,1.9.64,10.28,10.28,0,0,0,1.94-.26,9.86,9.86,0,0,1,1.91-.25,2.45,2.45,0,0,1,1.78.79,2.69,2.69,0,0,1,.79,2,3.27,3.27,0,0,1-2.15,3,14.51,14.51,0,0,1-6.18,1,10.68,10.68,0,0,1-5.8-1.29A6,6,0,0,1,222,98.4a24,24,0,0,1-.61-6.06V76.69h-1.08a3.89,3.89,0,0,1-2.68-.83,2.74,2.74,0,0,1-.93-2.12,2.63,2.63,0,0,1,1-2.11A4.25,4.25,0,0,1,220.53,70.81Z" transform="translate(-0.51 -0.47)"/><path d="M248.78,67h-.45a4.23,4.23,0,0,1-3-1.36,4.43,4.43,0,0,1-1.36-3.21,4.26,4.26,0,0,1,1.36-3.2A4.74,4.74,0,0,1,248.66,58a4.55,4.55,0,0,1,2.57.79,5.1,5.1,0,0,1,1.85,2.3,9.22,9.22,0,0,1,.66,3.69,12.5,12.5,0,0,1-1.26,5.54,12,12,0,0,1-3.06,4.09,5.37,5.37,0,0,1-3.27,1.51,2.06,2.06,0,0,1-1.51-.59,1.94,1.94,0,0,1-.58-1.41,2.08,2.08,0,0,1,1.23-2,8.92,8.92,0,0,0,2.48-2A5,5,0,0,0,248.78,67Z" transform="translate(-0.51 -0.47)"/><path d="M286.32,92.58a9.47,9.47,0,0,1-6.5,9.42,21.65,21.65,0,0,1-7.81,1.24,19,19,0,0,1-7.52-1.35,10.9,10.9,0,0,1-4.63-3.35,6.77,6.77,0,0,1-1.49-4.05,3.12,3.12,0,0,1,.95-2.3,3.27,3.27,0,0,1,2.42-1,2.81,2.81,0,0,1,2,.63A6.77,6.77,0,0,1,265,93.62a8.93,8.93,0,0,0,3,3.26A9.1,9.1,0,0,0,272.79,98a6.89,6.89,0,0,0,4-1.09,3,3,0,0,0,1.56-2.49,3.41,3.41,0,0,0-1.62-3.14,20.68,20.68,0,0,0-5.36-1.88,44.39,44.39,0,0,1-6.86-2.19,11.32,11.32,0,0,1-4.22-3,6.94,6.94,0,0,1-1.59-4.63,8.14,8.14,0,0,1,1.47-4.63,10,10,0,0,1,4.31-3.48,16.64,16.64,0,0,1,6.89-1.3,22.43,22.43,0,0,1,5.68.66,14.27,14.27,0,0,1,4.21,1.76A8.55,8.55,0,0,1,283.85,75a4.77,4.77,0,0,1,.88,2.63,3,3,0,0,1-.94,2.3,3.74,3.74,0,0,1-2.67.89,3.32,3.32,0,0,1-2.14-.71,15.06,15.06,0,0,1-2-2.15A7.19,7.19,0,0,0,274.79,76a6.84,6.84,0,0,0-3.4-.72,6.66,6.66,0,0,0-3.68.94,2.76,2.76,0,0,0-1.46,2.34,2.56,2.56,0,0,0,1.07,2.11,9,9,0,0,0,2.9,1.36c1.22.36,2.89.79,5,1.31a27.08,27.08,0,0,1,6.19,2.21,10.38,10.38,0,0,1,3.65,3A6.79,6.79,0,0,1,286.32,92.58Z" transform="translate(-0.51 -0.47)"/><path d="M206.88,148.91H178.77a19.16,19.16,0,0,0,2,8.63,13.17,13.17,0,0,0,12.13,7.53,17,17,0,0,0,4.71-.61,15.17,15.17,0,0,0,4.13-1.89,31.1,31.1,0,0,0,3.69-2.76q1.68-1.49,4.37-4a4.68,4.68,0,0,1,3.16-.95,5.21,5.21,0,0,1,3.58,1.21,4.34,4.34,0,0,1,1.37,3.42,9.3,9.3,0,0,1-1.53,4.55,17.88,17.88,0,0,1-4.61,5,26,26,0,0,1-7.74,4,33.35,33.35,0,0,1-10.71,1.58q-13.85,0-21.53-7.9t-7.68-21.42A35.82,35.82,0,0,1,166,133.46a26.12,26.12,0,0,1,5.53-9.34,23.94,23.94,0,0,1,9-6,32.21,32.21,0,0,1,11.79-2.08,28,28,0,0,1,14.45,3.56,23.39,23.39,0,0,1,9,9.18,24.17,24.17,0,0,1,3,11.48q0,5.41-3.11,7T206.88,148.91Zm-28.11-8.16h26.06q-.53-7.37-4-11a11.9,11.9,0,0,0-9.08-3.66,11.5,11.5,0,0,0-8.82,3.72Q179.51,133.49,178.77,140.75Z" transform="translate(-0.51 -0.47)"/><path d="M267.16,166.49a44.63,44.63,0,0,1-10.09,6.08,28.15,28.15,0,0,1-10.92,2,20.66,20.66,0,0,1-9.71-2.19,16,16,0,0,1-6.45-5.92,15.33,15.33,0,0,1-2.26-8.1,14.47,14.47,0,0,1,3.74-10.06,18.7,18.7,0,0,1,10.26-5.58c.91-.21,3.18-.68,6.79-1.42s6.71-1.41,9.29-2,5.38-1.36,8.4-2.23q-.27-5.69-2.29-8.35t-8.4-2.66c-3.65,0-6.39.51-8.24,1.53a13.39,13.39,0,0,0-4.73,4.58q-2,3.06-2.79,4c-.55.65-1.71,1-3.5,1a6.16,6.16,0,0,1-4.19-1.55,5.08,5.08,0,0,1-1.76-4,12.12,12.12,0,0,1,2.68-7.36,19.14,19.14,0,0,1,8.37-5.9,37.79,37.79,0,0,1,14.16-2.32q9.48,0,14.9,2.24a13.85,13.85,0,0,1,7.66,7.08q2.24,4.85,2.23,12.84c0,3.37,0,6.23,0,8.58s-.05,5-.08,7.85a29.07,29.07,0,0,0,1.34,8.45,26.26,26.26,0,0,1,1.34,5.65,5.3,5.3,0,0,1-2.07,4,7,7,0,0,1-4.72,1.82,6.39,6.39,0,0,1-4.37-2.08A31.26,31.26,0,0,1,267.16,166.49Zm-1-20.79a72.91,72.91,0,0,1-9.19,2.45q-6,1.29-8.34,1.89a11.31,11.31,0,0,0-4.42,2.37,6.06,6.06,0,0,0-2.11,4.92,7.31,7.31,0,0,0,2.48,5.56,9.17,9.17,0,0,0,6.47,2.29,16.92,16.92,0,0,0,7.87-1.87,12.48,12.48,0,0,0,5.29-4.82c1.3-2.18,1.95-5.75,1.95-10.74Z" transform="translate(-0.51 -0.47)"/><path d="M293,117.43h1.58V108.8c0-2.32.06-4.13.18-5.45a8.14,8.14,0,0,1,1-3.39,6.41,6.41,0,0,1,2.42-2.4,6.94,6.94,0,0,1,3.53-.92,7.11,7.11,0,0,1,4.95,2,6.14,6.14,0,0,1,1.87,3.35,30.62,30.62,0,0,1,.39,5.6v9.79h5.26a6.71,6.71,0,0,1,4.66,1.45,4.77,4.77,0,0,1,1.61,3.71,4.14,4.14,0,0,1-2.29,4,14.74,14.74,0,0,1-6.55,1.16H309v26.43a42.29,42.29,0,0,0,.24,5.18,5.35,5.35,0,0,0,1.26,3,4.35,4.35,0,0,0,3.34,1.13,17.61,17.61,0,0,0,3.42-.45,18.43,18.43,0,0,1,3.37-.44,4.34,4.34,0,0,1,3.14,1.39,4.68,4.68,0,0,1,1.39,3.45q0,3.48-3.79,5.32t-10.9,1.84q-6.74,0-10.21-2.27a10.48,10.48,0,0,1-4.55-6.26,42.5,42.5,0,0,1-1.08-10.69V127.8h-1.89a6.85,6.85,0,0,1-4.74-1.47,4.81,4.81,0,0,1-1.63-3.74,4.63,4.63,0,0,1,1.71-3.71A7.48,7.48,0,0,1,293,117.43Z" transform="translate(-0.51 -0.47)"/><path d="M335.11,139.86l-1.68-25.22q-.48-7.36-.48-10.58a9.65,9.65,0,0,1,2.29-6.82,7.88,7.88,0,0,1,6-2.44q4.53,0,6.05,3.13t1.53,9a67.72,67.72,0,0,1-.37,7.05l-2.26,26a20.39,20.39,0,0,1-1.58,7.11,4.13,4.13,0,0,1-4,2.47,4,4,0,0,1-3.95-2.39A23.91,23.91,0,0,1,335.11,139.86ZM341,174.49a8.26,8.26,0,0,1-5.61-2.08,7.26,7.26,0,0,1-2.4-5.81,7.82,7.82,0,0,1,7.9-7.85,7.83,7.83,0,0,1,5.66,2.29,7.49,7.49,0,0,1,2.34,5.56,7.36,7.36,0,0,1-2.37,5.79A8.07,8.07,0,0,1,341,174.49Z" transform="translate(-0.51 -0.47)"/></svg>