<svg id="Layer_1" data-name="Layer 1" xmlns="http://www.w3.org/2000/svg" viewBox="0 0 191.3 174.13"><polyline points="152.64 54.83 191.29 16.18 188.94 13.82 150.88 51.87 150.88 51.87 124.8 0 66.12 0 40.16 51.62 40.16 51.62 2.36 13.82 0 16.18 38.45 54.62"/><path d="M39,58,51.49,174.6h89.14L153.1,58Zm61.68,94.14a7.66,7.66,0,0,1-5.24,2,7.92,7.92,0,0,1-5.37-2,7,7,0,0,1-2.3-5.57A7.15,7.15,0,0,1,90,141.23a7.49,7.49,0,0,1,5.45-2.17,7.41,7.41,0,0,1,7.51,7.51A7.07,7.07,0,0,1,100.7,152.12Zm18.82-46.68a22.6,22.6,0,0,1-4.13,5.57q-2.39,2.34-8.59,7.89a35.44,35.44,0,0,0-2.75,2.74,11.82,11.82,0,0,0-1.54,2.17,11.52,11.52,0,0,0-.78,2c-.18.65-.46,1.8-.83,3.45-.64,3.5-2.64,5.24-6,5.24a6.13,6.13,0,0,1-4.41-1.71,6.74,6.74,0,0,1-1.79-5.09,17.84,17.84,0,0,1,4.79-12.78,78,78,0,0,1,5.85-5.57q3.22-2.82,4.66-4.26a14.49,14.49,0,0,0,2.42-3.2,7.8,7.8,0,0,0,1-3.83,8.88,8.88,0,0,0-3-6.8,10.94,10.94,0,0,0-7.73-2.78q-5.55,0-8.17,2.8a22.22,22.22,0,0,0-4.44,8.24q-1.71,5.7-6.5,5.7a6.41,6.41,0,0,1-4.76-2,6.08,6.08,0,0,1-1.94-4.31,18.22,18.22,0,0,1,3.07-9.71,23.68,23.68,0,0,1,9-8.14,28.2,28.2,0,0,1,13.76-3.22,29.48,29.48,0,0,1,12.9,2.69,20.93,20.93,0,0,1,8.64,7.34,17.92,17.92,0,0,1,3.05,10.08A15.57,15.57,0,0,1,119.52,105.44Z" transform="translate(-0.51 -0.47)"/></svg>